<svg width="18" height="18" viewBox="0 0 18 18" fill="none" xmlns="http://www.w3.org/2000/svg">
<path d="M15.2312 2.61395C11.745 -0.872339 6.10171 -0.872896 2.61494 2.61395C-0.871384 6.10023 -0.871907 11.7434 2.61494 15.2303C6.10115 18.7165 11.7444 18.7171 15.2312 15.2303C18.7175 11.744 18.718 6.10075 15.2312 2.61395ZM14.8583 13.9586C14.4415 13.5858 13.9957 13.256 13.5257 12.9717C13.8363 11.8987 14.0204 10.718 14.0639 9.4906H16.6867C16.5681 11.145 15.9324 12.6969 14.8583 13.9586ZM1.15943 9.4906H3.78224C3.82574 10.718 4.00977 11.8987 4.3204 12.9717C3.85044 13.256 3.40458 13.5858 2.98776 13.9586C1.91369 12.6969 1.27805 11.145 1.15943 9.4906ZM2.9878 3.88563C3.40461 4.25835 3.85047 4.5882 4.32043 4.87246C4.00981 5.94546 3.82578 7.12621 3.78228 8.3536H1.15943C1.27805 6.69923 1.91369 5.14729 2.9878 3.88563ZM8.35459 4.98997C7.42741 4.92366 6.53343 4.6953 5.70464 4.31857C6.18665 3.07736 7.07524 1.58866 8.35459 1.21974V4.98997ZM8.35459 6.1291V8.35363H4.91974C4.9591 7.31536 5.10621 6.31836 5.35087 5.40612C6.2927 5.81785 7.30562 6.06373 8.35459 6.1291ZM8.35459 9.4906V11.7151C7.30562 11.7805 6.2927 12.0264 5.35087 12.4381C5.10621 11.5259 4.9591 10.5289 4.91974 9.4906H8.35459ZM8.35459 12.8543V16.6245C7.07531 16.2555 6.18672 14.767 5.70464 13.5257C6.53343 13.1489 7.42741 12.9206 8.35459 12.8543ZM9.49156 12.8543C10.4187 12.9206 11.3127 13.1489 12.1415 13.5257C11.6595 14.7669 10.7709 16.2555 9.49156 16.6245V12.8543ZM9.49156 11.7151V9.4906H12.9264C12.8871 10.5289 12.7399 11.5259 12.4953 12.4381C11.5534 12.0264 10.5405 11.7805 9.49156 11.7151ZM9.49156 8.35363V6.1291C10.5405 6.06373 11.5534 5.81785 12.4953 5.40612C12.7399 6.31836 12.8871 7.31536 12.9264 8.35363H9.49156ZM9.49156 4.98997V1.21977C10.7709 1.5887 11.6595 3.07739 12.1415 4.3186C11.3127 4.6953 10.4187 4.92366 9.49156 4.98997ZM12.0451 1.78735C12.7728 2.10602 13.4517 2.53813 14.0603 3.07426C13.7707 3.32968 13.465 3.56129 13.1458 3.7684C12.8623 3.06656 12.5002 2.3845 12.0451 1.78735ZM4.70033 3.7684C4.38114 3.56129 4.07549 3.32968 3.78576 3.07426C4.39437 2.53813 5.07329 2.10602 5.80101 1.78735C5.34589 2.38457 4.98379 3.06663 4.70033 3.7684ZM4.70036 14.0758C4.98379 14.7776 5.34596 15.4597 5.80105 16.0569C5.07333 15.7382 4.3944 15.3061 3.7858 14.77C4.07549 14.5146 4.38117 14.2829 4.70036 14.0758ZM13.1458 14.0758C13.465 14.2829 13.7707 14.5146 14.0603 14.7699C13.4517 15.3061 12.7728 15.7382 12.0451 16.0568C12.5002 15.4598 12.8623 14.7777 13.1458 14.0758ZM14.0639 8.35363C14.0204 7.12625 13.8364 5.94546 13.5257 4.8725C13.9957 4.58824 14.4415 4.25839 14.8584 3.88567C15.9325 5.14729 16.5681 6.69923 16.6867 8.35363H14.0639Z" fill="white"/>
</svg>
