<svg width="12" height="12" viewBox="0 0 12 12" fill="none" xmlns="http://www.w3.org/2000/svg">
<g opacity="0.5">
<path d="M6.41848 5.44204C6.41848 5.21086 6.23105 5.02344 5.99987 5.02344C5.76869 5.02344 5.58127 5.21086 5.58127 5.44204V8.79088C5.58127 9.02206 5.76869 9.20948 5.99987 9.20948C6.23105 9.20948 6.41848 9.02206 6.41848 8.79088V5.44204Z" fill="black"/>
<path fill-rule="evenodd" clip-rule="evenodd" d="M6 0C2.68629 0 0 2.68629 0 6C0 9.31373 2.68629 12 6 12C9.31373 12 12 9.31373 12 6C12 2.68629 9.31373 0 6 0ZM0.837209 6C0.837209 3.14867 3.14867 0.837209 6 0.837209C8.85131 0.837209 11.1628 3.14867 11.1628 6C11.1628 8.85131 8.85131 11.1628 6 11.1628C3.14867 11.1628 0.837209 8.85131 0.837209 6Z" fill="black"/>
<path d="M6.55814 3.76761C6.55814 4.07586 6.30826 4.32575 6 4.32575C5.69174 4.32575 5.44186 4.07586 5.44186 3.76761C5.44186 3.45936 5.69174 3.20947 6 3.20947C6.30826 3.20947 6.55814 3.45936 6.55814 3.76761Z" fill="black"/>
</g>
</svg>
